<svg width="15" height="11" viewBox="0 0 15 11" fill="none" xmlns="http://www.w3.org/2000/svg">
<path d="M11.194 4.37183H1.63351C0.881825 4.37183 0.272461 4.80219 0.272461 5.33309C0.272461 5.86398 0.881825 6.29436 1.63351 6.29436H11.194C11.9457 6.29436 12.5551 5.86398 12.5551 5.33309C12.5551 4.80219 11.9457 4.37183 11.194 4.37183Z" fill="#E29724"/>
<path d="M13.2699 4.4486L7.95059 0.707402C7.53238 0.413265 7.01671 0.547536 6.79881 1.0073C6.58091 1.46707 6.74329 2.07823 7.1615 2.37237L12.4808 6.11357C12.899 6.40771 13.4147 6.27344 13.6326 5.81367C13.8505 5.3539 13.6881 4.74274 13.2699 4.4486Z" fill="#E29724"/>
<path d="M13.2699 6.21706L7.95059 9.95826C7.53238 10.2524 7.01671 10.1181 6.79881 9.65836C6.58091 9.19859 6.74329 8.58743 7.1615 8.2933L12.4808 4.55209C12.899 4.25796 13.4147 4.39223 13.6326 4.852C13.8505 5.31176 13.6881 5.92292 13.2699 6.21706Z" fill="#E29724"/>
</svg>
