<svg width="55" height="100" viewBox="0 0 55 100" fill="none" xmlns="http://www.w3.org/2000/svg">
<path fill-rule="evenodd" clip-rule="evenodd" d="M47.8514 50.0001L1.55965 4.47861C0.546947 3.4834 0.546309 1.86178 1.55902 0.866571C2.57107 -0.129282 4.22013 -0.128654 5.23218 0.867199L53.3606 48.1946C53.4704 48.3019 53.5697 48.4189 53.6742 48.5686L53.7317 48.6553C53.7977 48.7607 53.8565 48.8705 53.9061 48.9843L53.963 49.125L54.0401 49.3723L54.0597 49.4539C54.0826 49.558 54.1002 49.6634 54.1093 49.7694L54.1198 50.0283L54.1172 50.1221L54.0884 50.3984L54.0525 50.5783L54.0257 50.6811L53.9963 50.782L53.9486 50.9124L53.9055 51.0184C53.8558 51.1308 53.799 51.2394 53.733 51.3435L53.6474 51.4707C53.5625 51.5902 53.4658 51.7026 53.3475 51.8189L5.23155 99.1335C4.21949 100.129 2.57172 100.129 1.55902 99.1342C0.546962 98.139 0.546962 96.5173 1.55902 95.5221L47.8514 50.0001Z" fill="#DAD9D9"/>
</svg>
