<svg width="13" height="18" viewBox="0 0 13 18" fill="none" xmlns="http://www.w3.org/2000/svg">
<path fill-rule="evenodd" clip-rule="evenodd" d="M3.92169 15.3491C2.5567 13.5487 0.931639 10.5273 0.482958 8.26673C-0.257497 4.53844 1.80478 1.48582 5.33385 0.792526C6.15452 0.631212 6.75085 0.624584 7.57241 0.774879C11.1574 1.43291 13.2602 4.50627 12.5136 8.26673C12.0649 10.5273 10.4399 13.5482 9.07491 15.3491C7.01177 18.069 5.98571 18.0716 3.92169 15.3491ZM6.4983 3.65386C8.04973 3.65386 9.30716 4.91133 9.30716 6.46276C9.30716 8.01419 8.04973 9.27162 6.4983 9.27162C4.94687 9.27162 3.6894 8.01419 3.6894 6.46276C3.6894 4.91133 4.94687 3.65386 6.4983 3.65386Z" fill="#929292"/>
</svg>
