<svg width="55" height="100" viewBox="0 0 55 100" fill="none" xmlns="http://www.w3.org/2000/svg">
<path fill-rule="evenodd" clip-rule="evenodd" d="M7.14855 50.0001L53.4403 4.47861C54.4531 3.4834 54.4537 1.86178 53.441 0.866571C52.4289 -0.129282 50.7799 -0.128654 49.7678 0.867199L1.6394 48.1946C1.52964 48.3019 1.43034 48.4189 1.32581 48.5686L1.26832 48.6553C1.20233 48.7607 1.14353 48.8705 1.09388 48.9843L1.03703 49.125L0.959888 49.3723L0.9403 49.4539C0.917431 49.558 0.899807 49.6634 0.890659 49.7694L0.880196 50.0283L0.882812 50.1221L0.911587 50.3984L0.94751 50.5783L0.974308 50.6811L1.00366 50.782L1.05138 50.9124L1.09451 51.0184C1.14417 51.1308 1.20099 51.2394 1.26698 51.3435L1.3526 51.4707C1.43754 51.5902 1.53423 51.7026 1.65248 51.8189L49.7685 99.1335C50.7805 100.129 52.4283 100.129 53.441 99.1342C54.453 98.139 54.453 96.5173 53.441 95.5221L7.14855 50.0001Z" fill="#DAD9D9"/>
</svg>
