<svg width="131" height="108" viewBox="0 0 131 108" fill="none" xmlns="http://www.w3.org/2000/svg">
<path d="M110.902 0.848022H19.8C14.5487 0.848022 9.5125 2.93409 5.79928 6.64731C2.08606 10.3605 0 15.3967 0 20.648V82.996C0.108862 89.4183 2.72348 95.5437 7.28586 100.065C11.8482 104.586 17.997 107.145 24.42 107.196H27.83V92.654H110.902C116.086 92.6367 121.053 90.5712 124.72 86.9078C128.388 83.2443 130.459 78.2798 130.482 73.096V20.648C130.482 15.4346 128.426 10.4315 124.761 6.72452C121.095 3.01756 116.115 0.905949 110.902 0.848022ZM49.83 56.662H20.284C20.284 56.662 19.558 56.662 19.8 55.694C19.8 55.452 27.544 39.986 27.544 39.986C27.544 39.986 28.028 39.018 29.458 39.018H49.83C49.83 39.018 50.072 39.26 50.072 38.776V33.21C50.072 33.21 50.072 32.242 51.282 32.242H79.002C79.1617 32.239 79.3204 32.2683 79.4686 32.328C79.6167 32.3878 79.7513 32.4768 79.8643 32.5898C79.9772 32.7027 80.0662 32.8373 80.126 32.9855C80.1857 33.1336 80.215 33.2923 80.212 33.452V39.018C80.212 39.0822 80.2375 39.1438 80.2829 39.1891C80.3283 39.2345 80.3898 39.26 80.454 39.26H110.176C110.418 39.26 111.386 39.502 110.902 39.744L103.158 55.144C103.02 55.4814 102.79 55.7734 102.494 55.9872C102.199 56.201 101.85 56.328 101.486 56.354H80.454C80.3898 56.354 80.3283 56.3795 80.2829 56.4249C80.2375 56.4703 80.212 56.5318 80.212 56.596V61.898C80.215 62.0577 80.1857 62.2164 80.126 62.3646C80.0662 62.5127 79.9772 62.6473 79.8643 62.7603C79.7513 62.8732 79.6167 62.9622 79.4686 63.022C79.3204 63.0817 79.1617 63.111 79.002 63.108H51.216C51.0563 63.111 50.8976 63.0817 50.7494 63.022C50.6013 62.9622 50.4667 62.8732 50.3537 62.7603C50.2408 62.6473 50.1518 62.5127 50.092 62.3646C50.0323 62.2164 50.003 62.0577 50.006 61.898V56.838C49.9954 56.7955 49.9734 56.7567 49.9424 56.7257C49.9114 56.6947 49.8725 56.6727 49.83 56.662Z" fill="#000"/>
</svg>
