<svg width="41" height="40" viewBox="0 0 41 40" fill="none" xmlns="http://www.w3.org/2000/svg">
<path fill-rule="evenodd" clip-rule="evenodd" d="M34.4062 35.1055V34.6835C34.4062 34.035 35.0804 33.3333 35.9688 33.3333C37.8141 33.3333 37.8939 36.5865 35.8906 36.5847C35.1514 36.584 34.4062 35.9704 34.4062 35.1055ZM15.8906 1.60337V13.3333H9.64064C8.48756 13.3333 7.50832 14.9834 8.68308 16.2242L18.6445 26.9831C19.1005 27.4757 19.6671 28.3544 20.5 28.3544C21.325 28.3544 21.8667 27.511 22.3164 27.0253L32.65 15.8245C33.1902 14.8348 32.5223 13.3333 31.3594 13.3333H25.1094V1.60337C25.1094 0.52754 24.1662 0 23.2344 0H17.7656C17.2086 0 16.8153 0.111057 16.49 0.394244C16.1627 0.679106 15.8906 1.00532 15.8906 1.60337V1.60337ZM28.2344 35.0211C28.2344 33.0881 30.5198 32.7431 31.1285 34.3433C31.3706 34.9799 31.1916 35.6776 30.797 36.1013C29.8714 37.0953 28.2344 36.4432 28.2344 35.0211V35.0211ZM0.5 28.8608V37.7215C0.5 39.0024 1.66879 40 3.23438 40H37.7656C38.6626 40 39.1302 39.8319 39.6429 39.4117C40.0047 39.1153 40.5 38.3921 40.5 37.7215V28.8608C40.5 28.2211 39.976 27.4107 39.5975 27.1352C39.0378 26.7278 38.5054 26.5823 37.6094 26.5823H27.2188C26.9665 26.5823 24.5194 29.3713 24.3086 29.5992C21.7853 32.3267 19.2157 32.3036 16.6912 29.5993C16.4149 29.3033 16.2853 29.0757 16.0289 28.7958L14.582 27.2363C14.3529 26.9884 14.106 26.5823 13.7031 26.5823H3.39063C2.49462 26.5823 1.96223 26.7278 1.40251 27.1352C1.02398 27.4107 0.5 28.2211 0.5 28.8608V28.8608Z" fill="#999999"/>
</svg>
