<svg width="48" height="48" viewBox="0 0 48 48" fill="none" xmlns="http://www.w3.org/2000/svg">
<path d="M23.5267 0.555176C30.0222 0.555176 35.9062 3.18905 40.1631 7.44601C44.4194 11.7023 47.054 17.5863 47.054 24.0818C47.054 30.5773 44.4201 36.4607 40.1631 40.7183C35.9055 44.9753 30.0222 47.6091 23.5267 47.6091C17.0312 47.6091 11.1472 44.9746 6.8909 40.7183C2.63394 36.4613 0 30.5773 0 24.0818C0 17.5863 2.63328 11.703 6.8909 7.44601C11.1479 3.18839 17.0312 0.555176 23.5267 0.555176ZM28.1856 26.3838L35.2338 33.3071C35.8824 33.9451 35.891 34.989 35.253 35.6375C34.615 36.2861 33.5711 36.2947 32.9225 35.6567L25.8948 28.754C24.3722 29.8508 22.5032 30.498 20.4835 30.498C17.9243 30.498 15.6078 29.46 13.9318 27.7841C12.2559 26.1022 11.2179 23.7856 11.2179 21.2324C11.2179 18.6798 12.2552 16.3646 13.9318 14.686L13.9371 14.6807C15.6157 13.0041 17.9309 11.9667 20.4835 11.9667C23.0368 11.9667 25.3533 13.0048 27.0326 14.6833C28.7111 16.3566 29.7492 18.6732 29.7492 21.2324C29.7492 23.1391 29.1726 24.9109 28.1856 26.3838ZM25.1656 16.5477C23.9716 15.3504 22.3155 14.6112 20.4835 14.6112C18.6509 14.6112 16.9954 15.3504 15.8014 16.545L15.7961 16.5503C14.6015 17.7443 13.8624 19.3998 13.8624 21.2324C13.8624 23.0644 14.6015 24.7205 15.7961 25.9145C16.9987 27.1118 18.6549 27.8535 20.4835 27.8535C22.3122 27.8535 23.9683 27.1118 25.1656 25.9145C26.3629 24.7172 27.1047 23.061 27.1047 21.2324C27.1047 19.4037 26.3629 17.7476 25.1656 16.5477ZM37.8254 9.78376C34.1661 6.12445 29.1098 3.86078 23.5267 3.86078C17.9435 3.86078 12.8872 6.12511 9.22858 9.78376C5.56994 13.4424 3.30561 18.4986 3.30561 24.0818C3.30561 29.665 5.56927 34.7212 9.22858 38.3805C12.8872 42.0392 17.9435 44.3035 23.5267 44.3035C29.1098 44.3035 34.1661 42.0392 37.8254 38.3805C41.484 34.7212 43.7484 29.665 43.7484 24.0818C43.7484 18.4986 41.484 13.4424 37.8254 9.78376Z" fill="#929292"/>
</svg>
