<svg width="28" height="34" viewBox="0 0 28 34" fill="none" xmlns="http://www.w3.org/2000/svg">
<path d="M22.5709 17.6746C22.5357 13.4732 26.0095 11.4311 26.1621 11.3372C24.1904 8.47367 21.1391 8.07465 20.0711 8.03945C17.5127 7.76952 15.0247 9.57685 13.722 9.57685C12.3958 9.57685 10.3772 8.07465 8.21783 8.10986C5.43642 8.1568 2.81931 9.76463 1.39926 12.2761C-1.54646 17.3812 0.648163 24.8922 3.47652 29.0233C4.89657 31.0419 6.5396 33.3069 8.71074 33.2247C10.8232 33.1426 11.6213 31.8751 14.1679 31.8751C16.7029 31.8751 17.4423 33.2247 19.6486 33.1778C21.9254 33.1426 23.3454 31.1475 24.7185 29.1054C26.3498 26.7935 27.007 24.5049 27.0305 24.3876C26.9718 24.3641 22.6178 22.6976 22.5709 17.6746Z" fill="black"/>
<path d="M18.4047 5.32811C19.5431 3.90806 20.3176 1.97164 20.1064 0C18.4634 0.0704155 16.3978 1.13838 15.2125 2.53496C14.168 3.76723 13.2291 5.77407 13.4638 7.66356C15.3181 7.80439 17.2193 6.72468 18.4047 5.32811Z" fill="black"/>
</svg>
