<svg xmlns="http://www.w3.org/2000/svg" xml:space="preserve" width="210mm" height="297mm" version="1.1" style="shape-rendering:geometricPrecision; text-rendering:geometricPrecision; image-rendering:optimizeQuality; fill-rule:evenodd; clip-rule:evenodd"
viewBox="0 0 21000 29700"
 xmlns:xlink="http://www.w3.org/1999/xlink">
 <g >
  <path d="M14492 18027c296,1114 -803,1138 -1083,605 -157,-300 21,-656 254,-777 371,-193 605,-17 829,172zm-3537 -4573c71,204 643,789 879,875 252,-137 772,-727 1011,-955 518,-493 369,-558 1326,-677 155,-222 1102,-1748 1050,-1930 -81,-117 -647,-725 -757,-786 -142,-29 -1375,762 -1640,918 -320,187 -231,189 -334,591 -177,689 -249,615 -673,1032 -183,180 -757,713 -862,932zm-1437 3315c-103,247 -1002,1085 -1256,1343 -306,313 -998,1224 -1620,591 -653,-665 476,-1468 1249,-2275 123,-129 195,-219 304,-321 260,-243 152,-209 381,-284l942 946zm-999 -2020c-283,180 -690,656 -993,969 -488,504 -1568,1415 -1782,2108 -339,1100 777,2208 1898,1772 599,-233 2891,-2688 2934,-2829 -88,-148 -1846,-1951 -2057,-2020zm-2009 -4788l1307 1435c-75,180 -546,642 -727,695 -268,-162 -462,-438 -701,-680 -114,-116 -248,-227 -349,-338 -131,-144 -145,-232 -363,-239 -62,2251 -101,1265 1053,2691l1446 9 4452 4435c57,762 -32,1190 654,1584 1197,688 2535,-629 1905,-1798 -399,-741 -1026,-683 -1466,-734 -273,-345 -780,-784 -1125,-1128 -377,-375 -739,-752 -1103,-1127 -403,-416 -752,-756 -1148,-1136 -186,-178 -356,-371 -566,-578l-548 -570 -3 -1315c-57,-238 -921,-983 -1103,-1210l-1615 4z"/>
 </g>
</svg>
