<svg width="22" height="16" viewBox="0 0 22 16" fill="none" xmlns="http://www.w3.org/2000/svg">
<path fill-rule="evenodd" clip-rule="evenodd" d="M6.61959 4.49949C7.33663 4.38956 8.97786 4.64972 9.36186 4.36627C9.72432 4.09872 9.65368 3.76503 9.65368 3.20938C9.65368 2.73774 9.64603 2.25969 9.65483 1.78068L10.328 1.78308C10.3393 2.23859 10.3297 2.70594 10.3297 3.16274C10.3297 3.60591 10.2512 4.02091 10.5395 4.30119C10.8095 4.56349 11.2623 4.4892 11.7003 4.4892C12.1509 4.4892 12.6015 4.48925 13.0521 4.4892C13.5521 4.48916 13.3586 4.41652 13.9201 4.97635C14.1592 5.21484 14.3601 5.42016 14.596 5.65122C14.8558 5.90563 15.0275 6.10135 15.2736 6.32562C15.6511 6.66965 15.9479 6.44397 16.4181 6.53231C16.4521 7.0883 16.3125 7.48146 16.728 7.76325C16.9944 7.94391 17.7483 7.87701 18.1328 7.87701C18.5573 7.87701 19.2406 7.95781 19.5231 7.74792C19.9397 7.43846 19.753 7.0579 19.8134 6.52269L20.4825 6.52958L20.4719 11.9424L19.822 11.9416C19.7103 11.5831 19.9577 11.1469 19.6272 10.8089C19.3366 10.5118 19.0199 10.5871 18.5523 10.5871C18.1172 10.5871 17.682 10.5882 17.2468 10.5868C16.7673 10.5854 16.6423 10.7553 16.4057 11.0422L14.0776 13.96C14.0148 13.9992 8.8697 13.9734 8.5307 13.9734C7.94815 13.9734 7.24929 14.0082 6.68096 13.9681L6.19352 12.9915C6.03474 12.6621 5.8745 12.343 5.71199 12.0253C5.53774 11.6845 5.44063 11.3574 5.00174 11.2736C4.70322 11.2167 3.92043 11.2712 3.55906 11.2616L3.56675 6.52413C3.99241 6.5152 4.42264 6.5257 4.84893 6.52312C5.29515 6.52042 5.41961 6.28269 5.60667 6.02124L6.61959 4.49949ZM13.973 3.18898C13.9506 3.17271 13.9862 3.18529 13.9217 3.15431C13.7895 3.09074 11.847 3.12427 11.6952 3.12427L11.6957 1.79653L13.0055 1.79647C13.5271 1.79034 13.8784 1.24914 13.6243 0.770185C13.3957 0.33931 12.8999 0.423738 12.3762 0.423738H7.62175C7.05063 0.423738 6.61355 0.338622 6.36291 0.758581C6.25089 0.946236 6.23984 1.1976 6.33583 1.39575C6.63319 2.00967 7.49689 1.715 8.2994 1.785L8.29145 3.13158C7.83966 3.15892 7.31267 3.13514 6.85265 3.13514C5.741 3.13514 5.91377 3.1788 5.4164 3.87199C5.32135 4.00446 5.22684 4.15252 5.12606 4.30272C5.01893 4.46237 4.94208 4.57946 4.83728 4.73809C4.75849 4.85735 4.62998 5.07406 4.54534 5.16291C4.14783 5.19015 3.6698 5.16724 3.2635 5.16724C2.81265 5.16723 2.52888 5.15102 2.31627 5.48198C2.05809 5.88386 2.30022 7.31284 2.19562 7.88138L1.54321 7.87419C1.48598 7.62933 1.52865 6.54913 1.52865 6.21817C1.52865 5.9208 1.56423 5.70203 1.42761 5.49126C1.1713 5.09584 0.633497 5.05194 0.335867 5.41233C0.161946 5.62291 0.179578 5.77695 0.179878 6.07824L0.179893 11.0462C0.179893 11.6537 0.0811775 12.1647 0.424792 12.4645C0.853342 12.8383 1.47259 12.4421 1.47745 12.1618C1.53201 12.1199 1.48514 12.2068 1.52622 12.1098C1.56306 12.0227 1.53952 9.32623 1.53885 9.24211H2.19351L2.19349 11.746C2.19336 11.9924 2.19255 12.2719 2.37962 12.3932C2.52195 12.5035 2.55407 12.565 2.75541 12.6049C3.04647 12.6627 4.33428 12.5535 4.49054 12.6391C4.54978 12.6715 4.87938 13.391 4.92031 13.4724C5.05529 13.7407 5.19896 14.0487 5.33998 14.3106C5.86797 15.291 5.66884 15.3277 6.82935 15.3277C8.49962 15.3277 10.1699 15.3277 11.8402 15.3277C12.6758 15.3277 13.5233 15.3417 14.3574 15.3278C14.7474 15.3213 14.9139 15.0786 15.1128 14.8339C15.294 14.6109 15.4859 14.3754 15.6628 14.1492C16.0569 13.6451 16.402 13.2102 16.7788 12.7456C16.9607 12.5215 17.1646 12.2864 17.3387 12.047C17.4481 11.8967 17.5045 11.9426 17.8532 11.9426C18.036 11.9426 18.2684 11.9302 18.4449 11.9476C18.5145 12.4352 18.1875 13.2991 19.3215 13.297C19.6866 13.2963 20.0517 13.2969 20.4168 13.2969C21.0088 13.2969 21.8304 13.4533 21.8334 12.5391L21.8334 5.93819C21.8331 5.58982 21.7207 5.36032 21.4506 5.23215C21.2149 5.1203 20.6915 5.16724 20.3935 5.16724C20.0284 5.16724 19.6633 5.16768 19.2981 5.16714C18.2623 5.16559 18.4805 5.90757 18.449 6.52138L17.7804 6.5214C17.7559 6.25381 17.8212 5.87544 17.7454 5.64737C17.5457 5.04721 16.9494 5.16723 16.4315 5.16724C15.9335 5.16726 16.0649 5.20468 15.7857 4.92829L14.4449 3.58834C14.3047 3.44671 14.1769 3.29162 13.973 3.18898ZM9.6727 10.9494C9.56555 10.8995 8.35763 9.94706 8.16686 9.80011C7.97897 9.65536 7.82929 9.52448 7.50533 9.57191C7.03675 9.64054 6.77038 10.2004 7.08754 10.6483C7.17308 10.7691 8.8265 12.0231 9.08444 12.219C9.21409 12.3175 9.43212 12.5178 9.61466 12.5755C10.1691 12.7508 10.4101 12.3191 10.6626 11.9201C10.7274 11.8178 10.7771 11.7518 10.8408 11.6558C10.9025 11.563 10.9523 11.4759 11.0178 11.3896C11.2948 11.0246 11.4941 10.6742 11.7436 10.3206C12.342 9.47261 12.9216 8.53698 13.5332 7.67947C14.1101 6.87071 13.1117 6.15169 12.5556 6.72339C12.4357 6.8467 12.2878 7.09973 12.1905 7.24542L10.4026 9.88634C10.2719 10.0765 9.76585 10.8565 9.6727 10.9494Z" fill="#666666"/>
</svg>
