<svg width="37" height="40" viewBox="0 0 37 40" fill="none" xmlns="http://www.w3.org/2000/svg">
<path d="M14.5791 22.9776H12.5361C12.5222 23.4572 12.6041 23.9348 12.777 24.3823C12.9499 24.8299 13.2103 25.2385 13.543 25.5841C13.8758 25.9298 14.2741 26.2057 14.7147 26.3955C15.1554 26.5854 15.6294 26.6855 16.1092 26.6899V28.3591H17.1524V26.6899C19.0564 26.4812 20.4909 25.2554 20.4909 23.3515C20.4909 21.4475 19.0216 20.3521 17.1524 19.7175V16.8051C17.5257 16.9032 17.8505 17.1337 18.0664 17.4536C18.2824 17.7735 18.3746 18.161 18.3261 18.5438H20.4039C20.454 18.087 20.4073 17.6248 20.2667 17.1873C20.1261 16.7498 19.8949 16.3469 19.588 16.0048C19.2812 15.6627 18.9057 15.3892 18.4861 15.202C18.0664 15.0148 17.612 14.9182 17.1524 14.9185V13.371H16.1092V14.8837C14.1879 15.075 12.8316 16.1791 12.8316 17.9874C12.8316 20.1696 14.1705 20.8129 16.1092 21.5432V24.7946C15.6867 24.7086 15.3056 24.4823 15.0279 24.1525C14.7501 23.8226 14.592 23.4086 14.5791 22.9776ZM17.1872 21.8996C17.5174 21.9807 17.8143 22.1622 18.0369 22.4192C18.2596 22.6761 18.3971 22.9957 18.4304 23.3341C18.4209 23.6791 18.2917 24.0101 18.0649 24.2702C17.838 24.5304 17.5277 24.7035 17.1872 24.7599V21.8996ZM14.9442 17.9874C14.9442 17.4919 15.2659 16.9616 16.1614 16.7964V19.4045C15.4832 19.1263 14.9095 18.7525 14.9095 17.9874H14.9442Z" fill="#999999"/>
<path d="M36.5396 21.4736V7.89394H32.5665V3.0602H26.6461V0H24.0379V3.0602H9.25854V0H6.65041V3.0602H0.460449V16.6486V35.1663V36.0356H4.4335V39.9913H36.5396V21.4736ZM3.06858 21.9952V9.82395H29.9584V21.9952V32.5581H3.06858V21.9952ZM33.9314 37.3832H7.04163V36.0356H32.5665V16.6486V13.9535H33.9314V25.9596V37.3832Z" fill="#999999"/>
</svg>
