<svg width="48" height="48" viewBox="0 0 48 48" fill="none" xmlns="http://www.w3.org/2000/svg">
<path d="M24.4725 0.555176C30.968 0.555176 36.852 3.18905 41.1089 7.44601C45.3652 11.7023 47.9998 17.5863 47.9998 24.0818C47.9998 30.5773 45.3659 36.4607 41.1089 40.7183C36.8513 44.9753 30.968 47.6091 24.4725 47.6091C17.977 47.6091 12.093 44.9746 7.8367 40.7183C3.57974 36.4613 0.945801 30.5773 0.945801 24.0818C0.945801 17.5863 3.57908 11.703 7.8367 7.44601C12.0937 3.18839 17.977 0.555176 24.4725 0.555176ZM24.4731 26.9174C30.447 26.9174 35.2898 23.4081 35.2898 29.6709C35.2898 29.6749 35.2898 29.6802 35.2898 29.6835C35.2825 34.6591 30.4417 38.6913 24.4731 38.6913C18.5032 38.6913 13.6625 34.6578 13.6565 29.6809C13.6565 29.6782 13.6565 29.6742 13.6565 29.6709C13.6565 23.6184 18.4992 26.9174 24.4731 26.9174ZM24.4731 9.77717C28.4187 9.77717 31.6172 12.9756 31.6172 16.9212C31.6172 20.8668 28.4187 24.0653 24.4731 24.0653C20.5276 24.0653 17.329 20.8668 17.329 16.9212C17.329 12.9756 20.5276 9.77717 24.4731 9.77717ZM38.7712 9.78376C35.1119 6.12445 30.0556 3.86078 24.4725 3.86078C18.8893 3.86078 13.833 6.12511 10.1744 9.78376C6.51574 13.4424 4.25141 18.4986 4.25141 24.0818C4.25141 29.665 6.51508 34.7212 10.1744 38.3805C13.833 42.0392 18.8893 44.3035 24.4725 44.3035C30.0556 44.3035 35.1119 42.0392 38.7712 38.3805C42.4298 34.7212 44.6942 29.665 44.6942 24.0818C44.6942 18.4986 42.4298 13.4424 38.7712 9.78376Z" fill="#929292"/>
</svg>
