<svg width="18" height="18" viewBox="0 0 18 18" fill="none" xmlns="http://www.w3.org/2000/svg">
<path fill-rule="evenodd" clip-rule="evenodd" d="M8.15357 15.3985C8.15357 15.3319 8.20802 15.1002 8.23385 15.0386C8.61 14.1408 9.9817 14.4316 9.9817 15.3985C9.9817 15.465 9.92723 15.6967 9.90141 15.7583C9.82759 15.9345 9.62286 16.1408 9.45087 16.2218C9.10024 16.3868 8.69813 16.3013 8.43147 16.0346C8.36165 15.9648 8.28977 15.8783 8.24429 15.7817C8.21318 15.7156 8.15357 15.4775 8.15357 15.3985ZM2.52314 0.333344H2.71724C3.01765 0.34623 3.31658 0.419326 3.59494 0.558646C3.82424 0.673409 4.03238 0.819293 4.21693 0.986126C4.40571 1.1568 4.54381 1.4062 4.6558 1.63059C5.09028 2.50114 4.84058 3.6856 4.12086 4.29023C3.88178 4.49108 3.60392 4.69244 3.27857 4.76825C3.27857 5.49046 3.27857 6.21268 3.27857 6.93491C3.27857 7.55967 3.1911 8.32293 4.02336 8.32293H8.39054V4.76825C7.93368 4.6618 7.59774 4.36379 7.29899 4.03167C6.94502 3.63818 6.7994 3.06274 6.7994 2.46616C6.7994 1.78294 7.20872 1.11681 7.75337 0.745659C8.19081 0.447569 8.64247 0.333344 9.20304 0.333344C9.88626 0.333344 10.5524 0.742665 10.9235 1.28733C11.2216 1.72476 11.3359 2.17643 11.3359 2.737C11.3359 3.4635 10.8855 4.12282 10.3411 4.48438C10.1685 4.59902 9.96173 4.71768 9.74471 4.76825V8.32293H13.9765C14.3092 8.32293 14.555 8.14593 14.6548 7.9179C14.7871 7.61559 14.7213 5.20727 14.7213 4.76825C14.4948 4.71548 14.2806 4.5886 14.1045 4.47093C13.0487 3.76528 12.839 2.29896 13.5559 1.26693C13.7014 1.05743 13.8698 0.891672 14.0841 0.745659C15.0293 0.101554 16.1847 0.236574 17.0138 0.986126C17.2026 1.1568 17.3407 1.4062 17.4527 1.63059C17.6133 1.95244 17.6666 2.34559 17.6666 2.737C17.6666 3.60163 16.9196 4.57156 16.0754 4.76823C16.0754 5.47165 16.1557 7.61025 16.0287 8.10694C15.9148 8.5525 15.6984 8.92128 15.3938 9.16469C15.0554 9.43504 14.6843 9.67709 14.2135 9.67709H9.74471V13.2318C11.1021 13.548 11.951 15.5369 10.7868 16.8807C10.3595 17.374 9.79709 17.6319 9.22308 17.6667H8.95317C8.35918 17.6308 7.7734 17.3585 7.3322 16.863C6.93884 16.4213 6.7994 15.8758 6.7994 15.263C6.7994 14.3986 7.54332 13.4292 8.39054 13.2318V9.67709H4.02336C3.69063 9.67709 3.44485 9.85408 3.34505 10.0821C3.21273 10.3844 3.27857 12.7928 3.27857 13.2318C4.50035 13.5164 5.27277 15.1364 4.64441 16.3919C4.47048 16.7394 4.23634 17.0373 3.91579 17.2544C3.47702 17.5516 3.0277 17.6667 2.46607 17.6667C1.61515 17.6667 0.905606 17.0876 0.547165 16.3694C0.386526 16.0476 0.333252 15.6544 0.333252 15.263C0.333252 14.5339 0.779774 13.8798 1.32804 13.5156C1.50065 13.401 1.70738 13.2823 1.9244 13.2318C1.9244 12.5815 1.85222 10.286 2.00557 9.75827C2.09886 9.43724 2.26028 9.25675 2.43221 9.00001C2.38331 8.92699 2.34829 8.90384 2.29617 8.83137C2.17288 8.65998 2.06824 8.45737 2.00557 8.24174C1.85222 7.71399 1.9244 5.41852 1.9244 4.76825C1.69798 4.71548 1.4837 4.5886 1.30765 4.47093C1.20354 4.40136 1.13142 4.33647 1.04437 4.26023C0.544541 3.82252 0.333252 3.19596 0.333252 2.46616C0.333252 1.88125 0.623857 1.38675 0.986034 0.986126C1.03923 0.927273 1.21674 0.793686 1.28723 0.745659C1.65429 0.495531 2.08594 0.351937 2.52314 0.333344ZM1.68742 15.3985C1.68742 15.3319 1.74188 15.1002 1.76769 15.0386C2.05706 14.348 3.08362 14.2904 3.42483 15.0152C3.58988 15.3658 3.50431 15.7679 3.23763 16.0346C3.16783 16.1044 3.08136 16.1763 2.98472 16.2218C2.75078 16.3319 2.4817 16.3328 2.24165 16.2322C2.06546 16.1584 1.8591 15.9537 1.77814 15.7817C1.74704 15.7156 1.68742 15.4775 1.68742 15.3985ZM14.4843 2.60158C14.4843 1.67159 15.8006 1.32375 16.2217 2.21834C16.6379 3.10245 15.4936 3.96914 14.7622 3.23773C14.6037 3.07926 14.4843 2.84202 14.4843 2.60158ZM8.15357 2.60158C8.15357 1.67159 9.46984 1.32375 9.89096 2.21834C10.0011 2.45228 10.002 2.72136 9.90141 2.9614C9.52526 3.85922 8.15357 3.56838 8.15357 2.60158ZM1.68742 2.60158C1.68742 1.67159 3.00371 1.32375 3.42483 2.21834C3.64497 2.68599 3.41069 3.2244 2.98472 3.42492C2.35334 3.72214 1.68742 3.20376 1.68742 2.60158Z" fill="#666666"/>
</svg>
