<svg xmlns="http://www.w3.org/2000/svg" xml:space="preserve" width="210mm" height="297mm" version="1.1" style="shape-rendering:geometricPrecision; text-rendering:geometricPrecision; image-rendering:optimizeQuality; fill-rule:evenodd; clip-rule:evenodd"
viewBox="0 0 21000 29700"
 xmlns:xlink="http://www.w3.org/1999/xlink">
 <g>
  <path d="M5205 7680l10590 0 0 14340 -10590 0 0 -14340zm6392 1551l-2195 0 0 394 -1485 0 -557 1153 2042 0 0 414 2195 0 0 -414 1463 0 580 -1153 -2043 0 0 -394zm-5327 3095l8460 0 0 92 -8460 0 0 -92zm0 7990l8460 0 0 91 -8460 0 0 -91zm0 -911l8460 0 0 91 -8460 0 0 -91zm0 -911l8460 0 0 91 -8460 0 0 -91zm0 -911l8460 0 0 91 -8460 0 0 -91zm0 -911l8460 0 0 91 -8460 0 0 -91zm0 -702l8460 0 0 92 -8460 0 0 -92zm0 -911l8460 0 0 92 -8460 0 0 -92zm0 -911l8460 0 0 92 -8460 0 0 -92zm0 -911l8460 0 0 92 -8460 0 0 -92z"/>
 </g>
</svg>
