<svg width="40" height="40" viewBox="0 0 40 40" fill="none" xmlns="http://www.w3.org/2000/svg">
<mask id="mask0_170_4347" style="mask-type:alpha" maskUnits="userSpaceOnUse" x="0" y="0" width="40" height="40">
<rect width="40" height="40" fill="#C4C4C4"/>
</mask>
<g mask="url(#mask0_170_4347)">
<path d="M5.75969 3.1814C6.3938 3.09907 7.03681 3.23973 7.57863 3.57929L26.0523 14.0809L21.3771 18.813L5.75969 3.1814ZM4.33864 4.60245C4.24954 4.91183 4.20645 5.23263 4.21074 5.55456V34.9135C4.20645 35.2354 4.24954 35.5562 4.33864 35.8656L19.9702 20.234L4.33864 4.60245ZM21.3913 21.6551L5.75969 37.2867C6.3941 37.3764 7.03965 37.2352 7.57863 36.8888L26.0523 26.3872L21.3913 21.6551ZM33.4986 18.3298L27.8997 15.1467L22.7839 20.234L27.8855 25.3356L33.4844 22.1525C35.3318 21.1009 35.3318 19.3672 33.4844 18.3156L33.4986 18.3298Z" fill="#EEB333"/>
</g>
</svg>
