<svg width="18" height="18" viewBox="0 0 18 18" fill="none" xmlns="http://www.w3.org/2000/svg">
<path fill-rule="evenodd" clip-rule="evenodd" d="M13.4632 12.1693C15.7033 9.29231 15.5009 5.13004 12.8562 2.48529C9.99234 -0.378559 5.34913 -0.378559 2.48529 2.48529C-0.378559 5.34913 -0.378559 9.99234 2.48529 12.8562C5.13004 15.5009 9.29231 15.7033 12.1693 13.4632C12.1817 13.4772 12.1946 13.4909 12.208 13.5044L16.0971 17.3935C16.4551 17.7514 17.0355 17.7514 17.3935 17.3935C17.7514 17.0355 17.7514 16.4551 17.3935 16.0971L13.5044 12.208C13.4909 12.1946 13.4772 12.1817 13.4632 12.1693ZM11.5598 3.78165C13.7077 5.92953 13.7077 9.41194 11.5598 11.5598C9.41194 13.7077 5.92953 13.7077 3.78165 11.5598C1.63376 9.41194 1.63376 5.92953 3.78165 3.78165C5.92953 1.63376 9.41194 1.63376 11.5598 3.78165Z" fill="white"/>
</svg>
