<?xml version="1.0" encoding="UTF-8"?>
<!DOCTYPE svg PUBLIC "-//W3C//DTD SVG 1.1//EN" "http://www.w3.org/Graphics/SVG/1.1/DTD/svg11.dtd">
<!-- Creator: CorelDRAW X7 -->
<svg xmlns="http://www.w3.org/2000/svg" xml:space="preserve" width="20.0259mm" height="4.6194mm" version="1.1" style="shape-rendering:geometricPrecision; text-rendering:geometricPrecision; image-rendering:optimizeQuality; fill-rule:evenodd; clip-rule:evenodd"
viewBox="0 0 1993 460"
 xmlns:xlink="http://www.w3.org/1999/xlink">
 <defs>
  <style type="text/css">
   <![CDATA[
    .str0 {stroke:#34302C;stroke-width:9.95046}
    .fil0 {fill:#34302C;fill-rule:nonzero}
    .fil1 {fill:#34302C;fill-rule:nonzero}
   ]]>
  </style>
 </defs>
 <g id="Слой_x0020_1">
  <metadata id="CorelCorpID_0Corel-Layer"/>
  <g id="_3171277846384">
   <path class="fil0" d="M647 91l197 0 0 302 -43 0 0 -260 -111 0 0 260 -43 0 0 -302zm386 140l-83 162 -46 0 0 -225 40 0 0 138c0,3 0,6 0,8 0,3 0,5 0,8l0 8 0 0c7,-13 13,-27 20,-40 8,-14 15,-28 22,-42 7,-14 14,-27 21,-41 8,-14 14,-27 21,-39l45 0 0 225 -40 0 0 -139 0 -15c0,-3 0,-6 0,-8l0 0zm99 -63l40 0 0 90 25 0c13,0 22,-3 27,-8 5,-4 9,-12 11,-23l4 -17c4,-14 9,-25 16,-33 7,-8 18,-11 33,-11 4,0 7,0 11,0 4,0 8,1 12,2l0 34c-3,0 -6,-1 -8,-1 -2,-1 -4,-1 -7,-1 -10,0 -16,6 -19,17l-3 14c-2,13 -6,24 -10,32 -5,8 -11,15 -21,20l72 110 -47 0 -64 -99 -32 0 0 99 -40 0 0 -225zm221 0l40 0 0 88 89 0 0 -88 41 0 0 225 -41 0 0 -98 -89 0 0 98 -40 0 0 -225zm357 63l-83 162 -46 0 0 -225 40 0 0 138c0,3 0,6 0,8 0,3 0,5 0,8l0 8 0 0c7,-13 14,-27 21,-40 7,-14 14,-28 21,-42 8,-14 15,-27 22,-41 7,-14 14,-27 20,-39l46 0 0 225 -41 0 0 -139 0 -15c0,-3 0,-6 1,-8l-1 0zm99 -63l40 0 0 90 25 0c13,0 22,-3 27,-8 5,-4 9,-12 12,-23l4 -17c3,-14 8,-25 15,-33 7,-8 18,-11 34,-11 3,0 6,0 10,0 4,0 8,1 12,2l0 34c-3,0 -6,-1 -7,-1 -2,-1 -5,-1 -8,-1 -10,0 -16,6 -19,17l-2 14c-3,13 -7,24 -11,32 -4,8 -11,15 -20,20l72 110 -48 0 -64 -99 -32 0 0 99 -40 0 0 -225z"/>
   <path class="fil1 str0" d="M320 27l14 82 83 -6 12 -1 -6 12 -36 74 70 44 10 7 -10 5 -74 39 31 77 5 11 -13 -1 -82 -12 -20 80 -3 12 -9 -9 -59 -57 -64 53 -9 8 -2 -13 -15 -81 -82 5 -13 1 6 -11 36 -74 -70 -44 -10 -7 11 -6 73 -38 -31 -77 -4 -12 12 2 82 12 20 -80 3 -12 9 8 60 58 63 -53 10 -8 2 12zm-30 62c10,4 20,8 28,14l-10 -61 -48 39c10,2 20,4 30,8l0 0 0 0zm53 33c13,13 24,28 32,45 1,2 2,5 3,7l27 -56 -62 4zm43 82c4,21 3,42 -2,63l55 -30 -53 -33zm-13 92c-9,19 -23,36 -38,49l61 9 -23 -58zm-64 66c-3,2 -5,3 -7,4 -17,8 -35,12 -53,13l44 44 16 -61zm-92 16c-10,-1 -20,-4 -29,-7l0 0 -1 -1c-10,-3 -19,-8 -28,-13l11 61 47 -40zm-83 -41c-13,-13 -24,-28 -31,-44 -1,-3 -2,-5 -3,-7l-28 55 62 -4zm-43 -82c-4,-20 -3,-41 2,-62l-55 29 53 33zm13 -91c10,-20 23,-36 39,-49l-62 -9 23 58zm65 -67c2,-1 4,-2 7,-3 16,-8 34,-13 53,-14l-45 -43 -15 60zm193 76c-9,-19 -22,-36 -39,-49l-1 0 0 -1c-11,-8 -23,-15 -36,-20l-1 0c-13,-5 -27,-8 -40,-9l-1 1 -1 -1c-21,0 -42,4 -61,13 -6,3 -12,6 -18,10l0 1 -1 0c-23,15 -41,37 -51,64l0 0 0 0 0 1 -1 1c-10,27 -10,56 -3,82l1 1 -1 0c2,7 5,13 8,20 8,19 22,36 38,49l1 0 0 1c11,8 23,15 36,20l1 0c13,5 27,8 41,8l1 0 0 0c22,1 43,-3 62,-12 6,-3 12,-6 18,-10l0 -1 1 0c22,-15 40,-37 51,-65l-1 -1 1 0c10,-28 11,-56 3,-82l0 -1 0 -1c-2,-6 -4,-13 -7,-19z"/>
  </g>
 </g>
</svg>
