<?xml version="1.0" encoding="UTF-8"?>
<!DOCTYPE svg PUBLIC "-//W3C//DTD SVG 1.1//EN" "http://www.w3.org/Graphics/SVG/1.1/DTD/svg11.dtd">
<!-- Creator: CorelDRAW X7 -->
<svg xmlns="http://www.w3.org/2000/svg" xml:space="preserve" width="35mm" height="25mm" version="1.1" style="shape-rendering:geometricPrecision; text-rendering:geometricPrecision; image-rendering:optimizeQuality; fill-rule:evenodd; clip-rule:evenodd"
viewBox="0 0 3500 2500"
 xmlns:xlink="http://www.w3.org/1999/xlink">
 <defs>
  <style type="text/css">
   <![CDATA[
    .str0 {stroke:#34302C;stroke-width:10}
    .fil0 {fill:#34302C;fill-rule:nonzero}
    .fil1 {fill:#34302C;fill-rule:nonzero}
   ]]>
  </style>
 </defs>
 <g id="Слой_x0020_1">
  <metadata id="CorelCorpID_0Corel-Layer"/>
  <g id="_3171277864880">
   <polygon class="fil0" points="847,1084 1045,1084 1045,1387 1002,1387 1002,1125 890,1125 890,1387 847,1387 "/>
   <path id="1" class="fil0" d="M1106 1435c12,0 20,-3 26,-9 5,-6 10,-14 14,-24l12 -32 -78 -210 43 0 56 160 1 0 54 -160 43 0 -95 258c-7,19 -16,33 -28,42 -11,9 -26,14 -43,14 -12,0 -22,-1 -32,-4l0 -39c5,1 9,2 13,3 4,1 9,1 14,1z"/>
   <polygon id="2" class="fil0" points="1469,1160 1469,1199 1400,1199 1400,1387 1360,1387 1360,1199 1292,1199 1292,1160 "/>
   <path id="3" class="fil0" d="M1575 1156c19,0 36,5 50,15 14,9 24,23 30,40 2,5 3,11 4,18 1,7 2,15 2,24l0 30 -132 0 0 14c0,17 4,31 12,41 8,11 19,16 34,16 10,0 20,-3 27,-9 8,-6 13,-14 17,-25l41 0c-4,23 -14,40 -30,53 -15,12 -34,18 -55,18 -20,0 -37,-5 -51,-15 -14,-9 -24,-23 -29,-40 -2,-5 -4,-11 -5,-18 -1,-7 -2,-15 -2,-24l0 -41c0,-9 1,-17 2,-24 1,-7 3,-13 5,-18 5,-17 15,-31 30,-40 14,-10 31,-15 50,-15zm-41 64c-3,7 -5,16 -5,26l92 0c0,-10 -2,-19 -5,-26 -3,-9 -9,-15 -16,-20 -7,-5 -15,-7 -25,-7 -10,0 -18,2 -25,7 -7,5 -13,11 -16,20z"/>
   <polygon id="4" class="fil0" points="1956,1387 1712,1387 1712,1160 1753,1160 1753,1348 1814,1348 1814,1160 1854,1160 1854,1348 1915,1348 1915,1160 1956,1160 "/>
   <path id="5" class="fil0" d="M2094 1156c19,0 36,5 50,15 14,9 24,23 30,40 2,5 3,11 4,18 1,7 2,15 2,24l0 30 -132 0 0 14c0,17 4,31 12,41 8,11 19,16 34,16 10,0 20,-3 27,-9 8,-6 13,-14 17,-25l41 0c-4,23 -14,40 -30,53 -15,12 -34,18 -55,18 -20,0 -37,-5 -51,-15 -14,-9 -24,-23 -30,-40 -1,-5 -3,-11 -4,-18 -1,-7 -2,-15 -2,-24l0 -41c0,-9 1,-17 2,-24 1,-7 3,-13 4,-18 6,-17 16,-31 31,-40 14,-10 31,-15 50,-15zm-41 64c-3,7 -5,16 -5,26l92 0c0,-10 -2,-19 -5,-26 -3,-9 -9,-15 -16,-20 -7,-5 -15,-7 -25,-7 -10,0 -18,2 -25,7 -7,5 -13,11 -16,20z"/>
   <path id="6" class="fil0" d="M2351 1326c1,-3 2,-7 3,-10l41 0c-1,8 -3,15 -4,21 -6,17 -16,30 -31,40 -14,9 -30,14 -50,14 -19,0 -36,-5 -50,-15 -14,-9 -24,-23 -30,-40 -2,-5 -3,-11 -4,-18 -1,-7 -2,-15 -2,-24l0 -41c0,-9 1,-17 2,-24 1,-7 2,-13 4,-18 6,-17 16,-31 30,-40 14,-10 31,-15 50,-15 20,0 36,5 50,14 15,10 25,23 31,40 2,7 4,15 5,26l-41 0c-1,-6 -2,-11 -4,-15 -4,-9 -9,-15 -16,-19 -7,-5 -15,-7 -25,-7 -10,0 -18,2 -25,7 -7,5 -12,11 -16,20 -3,8 -5,18 -5,32l0 39c0,14 2,25 5,32 4,9 9,15 16,20 7,5 15,7 25,7 10,0 18,-2 25,-7 7,-4 12,-10 16,-19z"/>
   <polygon id="7" class="fil0" points="2598,1160 2598,1199 2530,1199 2530,1387 2490,1387 2490,1199 2421,1199 2421,1160 "/>
   <path id="8" class="fil0" d="M2634 1160l76 0c6,0 11,1 15,1 5,0 9,1 13,1 7,2 14,4 21,6 6,3 12,7 17,11 5,5 9,11 12,17 3,7 4,14 4,23 0,11 -2,20 -7,28 -5,9 -12,15 -22,21 12,6 22,13 28,22 6,10 9,19 9,30 0,17 -4,30 -13,41 -10,10 -21,17 -36,22 -9,2 -20,4 -35,4l-82 0 0 -227zm40 129l0 60 43 0c9,0 17,0 22,-2 5,-2 10,-5 14,-10 4,-4 6,-10 6,-18 0,-8 -2,-14 -7,-19 -4,-4 -10,-7 -17,-9 -2,-1 -5,-1 -8,-2 -3,0 -8,0 -13,0l-40 0zm0 -91l0 54 36 0c5,0 10,-1 13,-1 4,-1 7,-1 10,-3 5,-2 10,-5 13,-9 4,-4 6,-10 6,-17 0,-7 -2,-12 -6,-15 -3,-4 -8,-7 -13,-8 -5,-1 -12,-1 -21,-1l-38 0z"/>
   <path id="9" class="fil0" d="M2976 1224l-84 163 -46 0 0 -227 41 0 0 140c0,2 -1,5 -1,8 0,3 0,5 0,7l0 8 1 0c6,-13 13,-26 20,-40 7,-14 14,-27 22,-41 7,-14 14,-28 21,-42 7,-14 14,-27 21,-40l45 0 0 227 -40 0 0 -140 0 -15c0,-3 0,-6 0,-8l0 0z"/>
   <path id="10" class="fil0" d="M3155 1156c19,0 36,5 50,15 14,9 24,23 30,40 1,5 3,11 4,18 1,7 2,15 2,24l0 30 -133 0 0 14c0,17 4,31 13,41 8,11 19,16 33,16 11,0 20,-3 28,-9 7,-6 13,-14 16,-25l42 0c-5,23 -15,40 -30,53 -16,12 -34,18 -56,18 -19,0 -36,-5 -50,-15 -14,-9 -24,-23 -30,-40 -2,-5 -3,-11 -4,-18 -1,-7 -2,-15 -2,-24l0 -41c0,-9 1,-17 2,-24 1,-7 2,-13 4,-18 6,-17 16,-31 30,-40 14,-10 31,-15 51,-15zm-42 64c-3,7 -4,16 -5,26l93 0c-1,-10 -2,-19 -5,-26 -4,-9 -9,-15 -16,-20 -7,-5 -16,-7 -25,-7 -10,0 -19,2 -26,7 -7,5 -12,11 -16,20z"/>
   <path class="fil1 str0" d="M594 1148l-9 0 0 58c0,5 -4,9 -9,9 -6,0 -10,-4 -10,-9l0 -58 -212 0 0 58c0,5 -5,9 -10,9 -5,0 -9,-4 -9,-9l0 -58 -9 0c-13,0 -25,6 -33,14 -9,9 -15,21 -15,34l0 122 363 0 0 -122c0,-13 -5,-25 -14,-34 -8,-8 -20,-14 -33,-14zm-316 189l0 6c0,13 6,25 14,34 9,9 21,14 34,14l268 0c13,0 25,-5 33,-14 9,-9 14,-21 14,-34l0 -6 -363 0zm247 -311l0 0c17,0 32,7 43,18 10,11 17,26 17,42l0 43 9 0c18,0 35,8 47,20 12,12 19,29 19,47l0 131 0 0 0 1 0 15c0,19 -7,35 -19,47l0 0c-12,13 -29,20 -47,20l-268 0c-18,0 -35,-7 -47,-20l0 0c-12,-12 -20,-28 -20,-47l0 -15 0 -1 0 0 0 -131c0,-18 8,-35 20,-47 12,-12 29,-20 47,-20l9 0 0 -43c0,-16 6,-31 17,-42 11,-11 26,-18 43,-18l130 0 0 0zm41 103l0 -43c0,-11 -4,-21 -12,-29 -7,-7 -18,-12 -29,-12l0 0 0 0 -130 0c-12,0 -22,5 -29,12 -8,8 -12,18 -12,29l0 43 212 0z"/>
  </g>
 </g>
</svg>
