<?xml version="1.0" encoding="UTF-8"?>
<!DOCTYPE svg PUBLIC "-//W3C//DTD SVG 1.1//EN" "http://www.w3.org/Graphics/SVG/1.1/DTD/svg11.dtd">
<!-- Creator: CorelDRAW X7 -->
<svg xmlns="http://www.w3.org/2000/svg" xml:space="preserve" width="35mm" height="25mm" version="1.1" style="shape-rendering:geometricPrecision; text-rendering:geometricPrecision; image-rendering:optimizeQuality; fill-rule:evenodd; clip-rule:evenodd"
viewBox="0 0 3500 2500"
 xmlns:xlink="http://www.w3.org/1999/xlink">
 <defs>
  <style type="text/css">
   <![CDATA[
    .str0 {stroke:#34302C;stroke-width:10}
    .fil1 {fill:#34302C}
    .fil0 {fill:#34302C;fill-rule:nonzero}
   ]]>
  </style>
 </defs>
 <g id="Слой_x0020_1">
  <metadata id="CorelCorpID_0Corel-Layer"/>
  <g id="_3170944264480">
   <path class="fil0" d="M1511 1248c10,0 17,0 22,-2 5,-1 10,-3 13,-5 8,-4 14,-10 18,-18 4,-7 7,-16 7,-25 0,-10 -3,-19 -7,-27 -4,-8 -10,-14 -18,-18 -3,-2 -8,-4 -13,-5 -5,-1 -12,-2 -22,-2l-48 0 0 102 48 0zm-48 42l0 117 -43 0 0 -303 92 0c10,0 19,1 26,2 7,1 13,2 18,4 18,7 32,18 42,33 10,15 15,34 15,55 0,20 -5,38 -15,53 -10,16 -24,26 -42,33 -5,2 -11,3 -18,4 -7,1 -15,2 -26,2l-49 0z"/>
   <path id="1" class="fil0" d="M1646 1239c4,-19 12,-34 26,-45 13,-11 32,-17 55,-17 27,0 48,7 60,21 13,14 20,34 20,60l0 149 -29 0 -5 -29 0 0c-7,11 -16,19 -26,25 -10,6 -21,8 -35,8 -23,0 -41,-6 -54,-19 -14,-14 -21,-32 -21,-56 0,-10 2,-20 5,-29 4,-8 9,-16 16,-22 7,-6 15,-11 25,-15 10,-3 22,-5 34,-5l49 0 0 -11c0,-27 -13,-40 -40,-40 -11,0 -20,2 -25,7 -6,4 -10,10 -13,18l-42 0zm31 97c0,12 4,21 10,28 7,7 17,11 31,11 6,0 13,-2 19,-5 6,-3 11,-7 15,-12 5,-5 8,-10 11,-16 2,-6 3,-12 3,-17l0 -25 -48 0c-12,0 -22,3 -30,10 -7,6 -11,15 -11,26z"/>
   <path id="2" class="fil0" d="M2031 1315c0,9 -1,16 -2,23 -1,7 -3,14 -4,19 -6,17 -16,31 -30,40 -14,10 -31,14 -50,14 -20,0 -37,-4 -51,-14 -14,-9 -24,-23 -30,-40 -1,-5 -3,-12 -4,-19 -1,-7 -2,-14 -2,-23l0 -104c0,-36 8,-63 24,-82 16,-19 42,-30 78,-34l58 -6 0 37 -50 6c-11,2 -21,4 -29,7 -9,4 -16,8 -22,14 -6,6 -10,14 -14,23 -3,9 -4,19 -4,32l0 10c6,-8 14,-14 22,-18 9,-5 19,-7 32,-7 19,0 35,5 48,16 13,10 21,24 26,41 1,4 2,9 3,15 0,6 1,12 1,17l0 33zm-41 -32c0,-16 -3,-29 -10,-38 -7,-9 -18,-13 -31,-13 -9,0 -16,2 -22,5 -6,3 -11,7 -15,13 -5,5 -8,11 -10,19 -2,7 -3,14 -3,22l0 23c0,14 1,24 5,32 3,9 8,15 15,20 7,4 16,7 26,7 9,0 18,-3 25,-7 7,-5 12,-11 15,-20 4,-8 5,-18 5,-32l0 -31z"/>
   <path id="3" class="fil0" d="M2247 1315c0,9 0,16 -1,23 -1,7 -3,14 -5,19 -6,17 -16,31 -30,40 -14,10 -30,14 -50,14 -19,0 -36,-4 -50,-14 -14,-9 -24,-23 -30,-40 -2,-5 -3,-12 -4,-19 -1,-7 -2,-14 -2,-23l0 -41c0,-9 1,-17 2,-24 1,-7 2,-13 4,-18 6,-18 16,-31 30,-41 14,-9 31,-14 50,-14 20,0 36,5 50,14 14,10 24,23 30,41 2,5 4,11 5,18 1,7 1,15 1,24l0 41zm-40 -41c0,-13 -2,-24 -5,-31 -4,-9 -9,-16 -16,-20 -7,-5 -15,-7 -25,-7 -10,0 -18,2 -25,7 -7,4 -12,11 -16,20 -3,7 -5,18 -5,31l0 40c0,14 2,24 5,32 4,9 9,15 16,20 7,4 15,7 25,7 10,0 18,-3 25,-7 7,-5 12,-11 16,-20 3,-8 5,-18 5,-32l0 -40z"/>
   <polygon id="4" class="fil0" points="2444,1181 2444,1219 2376,1219 2376,1407 2335,1407 2335,1219 2267,1219 2267,1181 "/>
   <path id="5" class="fil0" d="M2472 1239c4,-19 13,-34 26,-45 14,-11 32,-17 55,-17 28,0 48,7 61,21 13,14 19,34 19,60l0 149 -28 0 -5 -29 -1 0c-7,11 -15,19 -25,25 -10,6 -22,8 -35,8 -23,0 -41,-6 -55,-19 -14,-14 -21,-32 -21,-56 0,-10 2,-20 6,-29 4,-8 9,-16 16,-22 7,-6 15,-11 25,-15 10,-3 21,-5 34,-5l49 0 0 -11c0,-27 -14,-40 -40,-40 -11,0 -20,2 -26,7 -6,4 -10,10 -13,18l-42 0zm32 97c0,12 3,21 10,28 6,7 17,11 30,11 7,0 13,-2 19,-5 6,-3 11,-7 16,-12 4,-5 8,-10 10,-16 3,-6 4,-12 4,-17l0 -25 -49 0c-12,0 -22,3 -29,10 -7,6 -11,15 -11,26z"/>
   <g>
    <path class="fil0 str0" d="M920 1029l336 0c15,0 28,6 38,15 10,10 16,23 16,38l0 336c0,15 -6,28 -16,38 -10,9 -23,15 -38,15l-336 0c-14,0 -28,-6 -38,-15 -9,-10 -15,-23 -15,-38l0 -336c0,-15 6,-28 15,-38 10,-9 24,-15 38,-15zm336 22l-336 0c-8,0 -16,4 -21,9 -6,6 -9,14 -9,22l0 336c0,8 3,16 9,22 5,5 13,9 21,9l336 0c9,0 16,-4 22,-9 5,-6 9,-14 9,-22l0 -336c0,-8 -4,-16 -9,-22 -6,-5 -13,-9 -22,-9z"/>
    <path class="fil1" d="M963 1342l-7 33c-1,13 -12,36 4,38 8,1 64,-25 69,-31 2,-2 150,-188 152,-191 10,-13 -1,-17 -13,-27l-32 -25c-8,-7 -14,1 -19,7 -4,5 -7,9 -11,13l-135 169c-3,5 -7,7 -8,14zm251 -193c4,-4 12,-12 11,-22 -7,-11 -36,-22 -50,-41 -14,1 -17,8 -25,18 -14,17 -11,16 25,45 9,6 13,11 17,13 10,5 16,-5 22,-13z"/>
   </g>
  </g>
 </g>
</svg>
