<?xml version="1.0" encoding="UTF-8"?>
<!DOCTYPE svg PUBLIC "-//W3C//DTD SVG 1.1//EN" "http://www.w3.org/Graphics/SVG/1.1/DTD/svg11.dtd">
<!-- Creator: CorelDRAW X7 -->
<svg xmlns="http://www.w3.org/2000/svg" xml:space="preserve" width="35mm" height="25mm" version="1.1" style="shape-rendering:geometricPrecision; text-rendering:geometricPrecision; image-rendering:optimizeQuality; fill-rule:evenodd; clip-rule:evenodd"
viewBox="0 0 3500 2500"
 xmlns:xlink="http://www.w3.org/1999/xlink">
 <defs>
  <style type="text/css">
   <![CDATA[
    .str0 {stroke:#34302C;stroke-width:10}
    .fil0 {fill:#34302C;fill-rule:nonzero}
   ]]>
  </style>
 </defs>
 <g id="Слой_x0020_1">
  <metadata id="CorelCorpID_0Corel-Layer"/>
  <g id="_3171077874128">
   <path class="fil0" d="M1631 1321c4,-9 6,-20 6,-34l43 0c0,10 -1,18 -2,26 -1,7 -3,13 -5,19 -4,10 -9,18 -15,25 -6,7 -13,13 -21,18 -8,5 -17,9 -26,11 -9,3 -19,4 -28,4l-3 0c-10,0 -19,-1 -28,-4 -9,-2 -17,-6 -25,-11 -8,-5 -15,-11 -21,-18 -7,-7 -12,-15 -16,-25 -2,-6 -4,-13 -5,-20 -1,-7 -2,-16 -2,-26l0 -103c0,-10 1,-18 2,-26 1,-7 3,-14 5,-20 4,-9 9,-18 16,-25 6,-7 13,-13 21,-18 8,-5 16,-9 25,-11 9,-3 18,-4 28,-4l3 0c9,0 19,1 28,4 9,2 18,6 26,11 8,5 15,11 21,18 6,7 11,16 15,25 4,11 7,25 7,42l-43 0c0,-6 -1,-12 -2,-17 -1,-5 -2,-10 -4,-14 -4,-10 -11,-17 -20,-21 -9,-5 -19,-7 -28,-7l-3 0c-10,0 -19,2 -28,7 -9,4 -16,11 -20,21 -2,5 -4,10 -5,16 -1,5 -1,12 -1,19l0 103c0,7 0,14 1,19 1,6 3,11 5,16 4,10 11,17 20,21 9,4 18,7 28,7l3 0c9,0 19,-3 28,-7 9,-4 16,-11 20,-21z"/>
   <polygon id="1" class="fil0" points="1727,1160 1895,1160 1895,1386 1855,1386 1855,1199 1768,1199 1768,1386 1727,1386 "/>
   <path id="2" class="fil0" d="M2119 1294c0,8 -1,16 -2,23 -1,7 -2,13 -4,19 -6,17 -16,30 -30,40 -14,9 -31,14 -50,14 -20,0 -36,-5 -50,-14 -14,-10 -24,-23 -30,-40 -2,-6 -3,-12 -5,-19 -1,-7 -1,-15 -1,-23l0 -42c0,-8 0,-16 1,-23 2,-7 3,-13 5,-19 6,-17 16,-30 30,-40 14,-9 30,-14 50,-14 19,0 36,5 50,14 14,10 24,23 30,40 2,6 3,12 4,19 1,7 2,15 2,23l0 42zm-40 -41c0,-13 -2,-24 -5,-32 -4,-8 -9,-15 -16,-20 -7,-4 -15,-6 -25,-6 -10,0 -18,2 -25,6 -7,5 -12,12 -16,20 -3,8 -5,19 -5,32l0 40c0,13 2,24 5,32 4,8 9,15 16,19 7,5 15,7 25,7 10,0 18,-2 25,-7 7,-4 12,-11 16,-19 3,-8 5,-19 5,-32l0 -40z"/>
   <path id="3" class="fil0" d="M2211 1290c0,10 1,18 3,25 4,10 9,19 17,26 7,7 17,10 29,10 12,0 21,-2 28,-8 7,-5 12,-13 15,-22 1,-4 2,-8 3,-12 0,-4 1,-10 1,-16l0 -41c0,-7 -1,-13 -1,-17 -1,-5 -2,-9 -4,-13 -6,-18 -19,-27 -40,-27 -10,0 -19,3 -27,9 -8,6 -14,14 -19,23 -1,3 -2,7 -3,11 -1,5 -2,10 -2,17l0 35zm56 100c-12,0 -22,-2 -32,-6 -9,-5 -17,-10 -24,-17l0 0 0 8c0,2 0,4 0,7 0,3 0,6 0,8l0 95 -40 0 0 -325 30 0 5 29 1 0c6,-10 15,-18 25,-24 10,-6 22,-9 37,-9 18,0 34,5 47,15 13,10 22,24 27,43 1,4 2,10 3,17 1,7 1,13 1,19l0 42c0,7 0,14 -1,20 0,7 -1,12 -3,17 -5,20 -14,36 -28,46 -14,10 -30,15 -48,15z"/>
   <polygon id="4" class="fil0" points="2544,1160 2544,1198 2475,1198 2475,1386 2435,1386 2435,1198 2367,1198 2367,1160 "/>
   <path class="fil0 str0" d="M1351 1121c58,101 23,230 -78,289 -101,58 -230,23 -288,-78 -59,-101 -24,-230 77,-288 101,-59 230,-24 289,77zm-357 131c-6,-17 -1,-65 4,-83 -7,-1 -13,-2 -20,-3 -14,44 -13,94 6,139 0,-15 2,-34 10,-53zm66 26l0 0c1,2 2,5 4,9 2,8 7,19 14,31 8,15 18,26 27,35 22,3 49,3 84,1 21,-19 35,-57 40,-72 1,-2 1,-3 2,-5 -2,-3 -4,-6 -6,-9 -8,-14 -16,-26 -23,-38 -5,-8 -9,-14 -14,-21 -1,-1 -4,-1 -7,-2 -8,-1 -16,-2 -24,-3 -16,-1 -39,-2 -58,4 -13,20 -29,44 -39,69 0,0 0,0 0,1zm-76 27l0 0c0,0 1,1 1,1 0,0 -1,-1 -1,-1 0,0 0,0 0,0zm213 -234l0 0c-27,-2 -55,-4 -86,-1 -1,2 -3,3 -5,6 -3,4 -9,11 -15,18 -9,13 -21,31 -27,49 2,3 5,7 7,12 4,6 7,12 11,18 6,10 12,20 17,29 31,-8 74,-2 89,1 11,-17 23,-33 36,-49 3,-5 7,-10 11,-15 -3,-12 -9,-28 -17,-42l0 0 1 -1 0 0 -1 1c-7,-12 -15,-22 -21,-26zm-97 285l0 0c-9,-9 -18,-21 -26,-35 -11,-18 -17,-34 -19,-42 -19,-2 -47,-14 -57,-22 -9,23 -9,47 -8,61 2,3 3,6 5,9 14,23 31,42 51,58 2,1 4,1 6,2 12,5 24,8 36,10 -1,-11 3,-24 12,-41zm-120 -195l0 0c0,0 0,-1 0,-1l0 0c0,0 0,1 0,1zm80 -21l0 0c10,-31 39,-64 47,-73 -3,-6 -9,-17 -11,-27 -9,4 -19,8 -27,14 -44,24 -74,63 -89,106 7,1 14,3 21,4 16,-16 43,-22 59,-24zm296 155l0 0c0,0 0,0 0,0 0,1 0,1 0,1 0,0 0,0 0,-1zm-45 -121l0 0c5,16 4,67 0,82 15,17 24,35 29,51 3,-2 6,-5 9,-7 3,-2 5,-3 7,-5 17,-46 17,-99 -4,-147 -4,-2 -8,-5 -12,-8 -6,8 -18,24 -29,34zm-109 -107l0 0c6,6 13,15 20,27 9,15 15,31 18,44 12,3 52,20 67,32 12,-11 25,-27 30,-36 -1,-6 -3,-13 -4,-21 0,0 0,0 0,0 -25,-36 -60,-61 -99,-75 -12,8 -25,21 -32,29zm19 336l0 0c-14,11 -31,19 -51,24 33,0 67,-9 98,-27 8,-4 15,-9 21,-14 -15,8 -41,18 -68,17zm-159 -7l0 0c19,12 40,21 61,26 -14,-6 -25,-13 -33,-20 -9,-1 -18,-3 -28,-6zm246 -135l0 0c-23,12 -48,18 -72,19 -5,14 -20,55 -43,77 1,1 2,3 3,4 6,11 19,29 25,37 32,2 64,-15 74,-21 1,0 1,-1 2,-1 16,-17 32,-46 38,-65 -2,-8 -5,-18 -11,-27 -4,-8 -10,-16 -16,-23z"/>
  </g>
 </g>
</svg>
